<mxfile host="app.diagrams.net" agent="Mozilla/5.0 (Windows NT 10.0; Win64; x64; rv:109.0) Gecko/20100101 Firefox/127.0" version="24.7.12">
  <diagram name="Page-1" id="2YBvvXClWsGukQMizWep">
    <mxGraphModel dx="1432" dy="777" grid="1" gridSize="10" guides="1" tooltips="1" connect="1" arrows="1" fold="1" page="1" pageScale="1" pageWidth="850" pageHeight="1100" math="0" shadow="0">
      <root>
        <mxCell id="0" />
        <mxCell id="1" parent="0" />
        <mxCell id="5xhsqeyStCjTJGMTp-c_-1" value="Staff" style="shape=umlActor;verticalLabelPosition=bottom;verticalAlign=top;html=1;outlineConnect=0;fillColor=#dae8fc;strokeColor=#6c8ebf;" vertex="1" parent="1">
          <mxGeometry x="60" y="510" width="30" height="60" as="geometry" />
        </mxCell>
        <mxCell id="5xhsqeyStCjTJGMTp-c_-2" value="Administrator" style="shape=umlActor;verticalLabelPosition=bottom;verticalAlign=top;html=1;outlineConnect=0;fillColor=#dae8fc;strokeColor=#6c8ebf;" vertex="1" parent="1">
          <mxGeometry x="60" y="400" width="30" height="60" as="geometry" />
        </mxCell>
        <mxCell id="5xhsqeyStCjTJGMTp-c_-3" value="Patients" style="shape=umlActor;verticalLabelPosition=bottom;verticalAlign=top;html=1;outlineConnect=0;fillColor=#dae8fc;strokeColor=#6c8ebf;" vertex="1" parent="1">
          <mxGeometry x="60" y="240" width="30" height="60" as="geometry" />
        </mxCell>
        <mxCell id="5xhsqeyStCjTJGMTp-c_-4" value="Doctors" style="shape=umlActor;verticalLabelPosition=bottom;verticalAlign=top;html=1;outlineConnect=0;fillColor=#dae8fc;strokeColor=#6c8ebf;" vertex="1" parent="1">
          <mxGeometry x="60" y="610" width="30" height="60" as="geometry" />
        </mxCell>
        <mxCell id="5xhsqeyStCjTJGMTp-c_-6" value="approve account" style="ellipse;whiteSpace=wrap;html=1;" vertex="1" parent="1">
          <mxGeometry x="150" y="370" width="90" height="50" as="geometry" />
        </mxCell>
        <mxCell id="5xhsqeyStCjTJGMTp-c_-7" value="Register account" style="ellipse;whiteSpace=wrap;html=1;" vertex="1" parent="1">
          <mxGeometry x="250" y="290" width="90" height="50" as="geometry" />
        </mxCell>
        <mxCell id="5xhsqeyStCjTJGMTp-c_-8" value="{abstract}&lt;br&gt;Manage account" style="ellipse;whiteSpace=wrap;html=1;" vertex="1" parent="1">
          <mxGeometry x="240" y="440" width="100" height="70" as="geometry" />
        </mxCell>
        <mxCell id="5xhsqeyStCjTJGMTp-c_-9" value="Delete account" style="ellipse;whiteSpace=wrap;html=1;" vertex="1" parent="1">
          <mxGeometry x="400" y="440" width="90" height="50" as="geometry" />
        </mxCell>
        <mxCell id="5xhsqeyStCjTJGMTp-c_-10" value="Modify account" style="ellipse;whiteSpace=wrap;html=1;" vertex="1" parent="1">
          <mxGeometry x="310" y="570" width="90" height="50" as="geometry" />
        </mxCell>
        <mxCell id="5xhsqeyStCjTJGMTp-c_-11" value="" style="endArrow=none;html=1;rounded=0;exitX=0.5;exitY=0.5;exitDx=0;exitDy=0;exitPerimeter=0;entryX=0;entryY=0.5;entryDx=0;entryDy=0;" edge="1" parent="1" target="5xhsqeyStCjTJGMTp-c_-8">
          <mxGeometry width="50" height="50" relative="1" as="geometry">
            <mxPoint x="75" y="430" as="sourcePoint" />
            <mxPoint x="448" y="265" as="targetPoint" />
          </mxGeometry>
        </mxCell>
        <mxCell id="5xhsqeyStCjTJGMTp-c_-12" value="" style="endArrow=open;html=1;rounded=0;exitX=0.99;exitY=0.643;exitDx=0;exitDy=0;endFill=0;exitPerimeter=0;entryX=-0.011;entryY=0.64;entryDx=0;entryDy=0;entryPerimeter=0;" edge="1" parent="1" target="5xhsqeyStCjTJGMTp-c_-9">
          <mxGeometry width="50" height="50" relative="1" as="geometry">
            <mxPoint x="339" y="485" as="sourcePoint" />
            <mxPoint x="391" y="443" as="targetPoint" />
          </mxGeometry>
        </mxCell>
        <mxCell id="5xhsqeyStCjTJGMTp-c_-13" value="&amp;lt;include&amp;gt;" style="edgeLabel;html=1;align=center;verticalAlign=middle;resizable=0;points=[];" vertex="1" connectable="0" parent="5xhsqeyStCjTJGMTp-c_-12">
          <mxGeometry x="-0.3486" y="4" relative="1" as="geometry">
            <mxPoint x="19" y="-2" as="offset" />
          </mxGeometry>
        </mxCell>
        <mxCell id="5xhsqeyStCjTJGMTp-c_-14" value="" style="endArrow=open;html=1;rounded=0;exitX=0.63;exitY=1.029;exitDx=0;exitDy=0;endFill=0;exitPerimeter=0;entryX=0;entryY=0;entryDx=0;entryDy=0;" edge="1" parent="1" target="5xhsqeyStCjTJGMTp-c_-10">
          <mxGeometry width="50" height="50" relative="1" as="geometry">
            <mxPoint x="303" y="512" as="sourcePoint" />
            <mxPoint x="387" y="561" as="targetPoint" />
          </mxGeometry>
        </mxCell>
        <mxCell id="5xhsqeyStCjTJGMTp-c_-15" value="&amp;lt;include&amp;gt;" style="edgeLabel;html=1;align=center;verticalAlign=middle;resizable=0;points=[];" vertex="1" connectable="0" parent="5xhsqeyStCjTJGMTp-c_-14">
          <mxGeometry x="-0.3486" y="4" relative="1" as="geometry">
            <mxPoint x="7" y="15" as="offset" />
          </mxGeometry>
        </mxCell>
        <mxCell id="5xhsqeyStCjTJGMTp-c_-16" value="" style="endArrow=open;html=1;rounded=0;exitX=0.5;exitY=0;exitDx=0;exitDy=0;endFill=0;entryX=0.6;entryY=1;entryDx=0;entryDy=0;entryPerimeter=0;" edge="1" parent="1" target="5xhsqeyStCjTJGMTp-c_-7">
          <mxGeometry width="50" height="50" relative="1" as="geometry">
            <mxPoint x="290" y="440" as="sourcePoint" />
            <mxPoint x="370" y="390" as="targetPoint" />
          </mxGeometry>
        </mxCell>
        <mxCell id="5xhsqeyStCjTJGMTp-c_-17" value="&amp;lt;include&amp;gt;" style="edgeLabel;html=1;align=center;verticalAlign=middle;resizable=0;points=[];" vertex="1" connectable="0" parent="5xhsqeyStCjTJGMTp-c_-16">
          <mxGeometry x="-0.3486" y="4" relative="1" as="geometry">
            <mxPoint x="19" y="-2" as="offset" />
          </mxGeometry>
        </mxCell>
        <mxCell id="5xhsqeyStCjTJGMTp-c_-18" value="" style="endArrow=none;html=1;rounded=0;entryX=0;entryY=0;entryDx=0;entryDy=0;exitX=0.5;exitY=0.5;exitDx=0;exitDy=0;exitPerimeter=0;" edge="1" parent="1" source="5xhsqeyStCjTJGMTp-c_-3" target="5xhsqeyStCjTJGMTp-c_-7">
          <mxGeometry width="50" height="50" relative="1" as="geometry">
            <mxPoint x="110" y="600" as="sourcePoint" />
            <mxPoint x="488" y="133" as="targetPoint" />
          </mxGeometry>
        </mxCell>
        <mxCell id="5xhsqeyStCjTJGMTp-c_-19" value="" style="endArrow=none;html=1;rounded=0;exitX=0.5;exitY=0.5;exitDx=0;exitDy=0;exitPerimeter=0;entryX=0;entryY=1;entryDx=0;entryDy=0;" edge="1" parent="1" target="5xhsqeyStCjTJGMTp-c_-6">
          <mxGeometry width="50" height="50" relative="1" as="geometry">
            <mxPoint x="75" y="430" as="sourcePoint" />
            <mxPoint x="358" y="172" as="targetPoint" />
          </mxGeometry>
        </mxCell>
        <mxCell id="5xhsqeyStCjTJGMTp-c_-20" value="" style="endArrow=none;html=1;rounded=0;exitX=0.267;exitY=0.96;exitDx=0;exitDy=0;endFill=0;startArrow=open;startFill=0;exitPerimeter=0;" edge="1" parent="1" source="5xhsqeyStCjTJGMTp-c_-7" target="5xhsqeyStCjTJGMTp-c_-6">
          <mxGeometry width="50" height="50" relative="1" as="geometry">
            <mxPoint x="315" y="380" as="sourcePoint" />
            <mxPoint x="230" y="383" as="targetPoint" />
          </mxGeometry>
        </mxCell>
        <mxCell id="5xhsqeyStCjTJGMTp-c_-21" value="&amp;lt;extend&amp;gt;" style="edgeLabel;html=1;align=center;verticalAlign=middle;resizable=0;points=[];" vertex="1" connectable="0" parent="5xhsqeyStCjTJGMTp-c_-20">
          <mxGeometry x="0.1215" y="-2" relative="1" as="geometry">
            <mxPoint y="-3" as="offset" />
          </mxGeometry>
        </mxCell>
        <mxCell id="5xhsqeyStCjTJGMTp-c_-22" value="" style="endArrow=none;html=1;rounded=0;entryX=0;entryY=1;entryDx=0;entryDy=0;exitX=0.5;exitY=0.5;exitDx=0;exitDy=0;exitPerimeter=0;" edge="1" parent="1" source="5xhsqeyStCjTJGMTp-c_-4" target="5xhsqeyStCjTJGMTp-c_-10">
          <mxGeometry width="50" height="50" relative="1" as="geometry">
            <mxPoint x="75" y="760" as="sourcePoint" />
            <mxPoint x="534" y="361" as="targetPoint" />
          </mxGeometry>
        </mxCell>
        <mxCell id="5xhsqeyStCjTJGMTp-c_-23" value="" style="endArrow=none;html=1;rounded=0;exitX=0.5;exitY=0.5;exitDx=0;exitDy=0;exitPerimeter=0;" edge="1" parent="1" source="5xhsqeyStCjTJGMTp-c_-1">
          <mxGeometry width="50" height="50" relative="1" as="geometry">
            <mxPoint x="40" y="260" as="sourcePoint" />
            <mxPoint x="310" y="590" as="targetPoint" />
          </mxGeometry>
        </mxCell>
        <mxCell id="5xhsqeyStCjTJGMTp-c_-36" value="Registration" style="swimlane;whiteSpace=wrap;html=1;" vertex="1" parent="1">
          <mxGeometry x="110" y="210" width="400" height="480" as="geometry" />
        </mxCell>
        <mxCell id="5xhsqeyStCjTJGMTp-c_-39" value="NOTE: DELETE LATER&lt;br&gt;* Patients can register but need their account approved by administrator&lt;br&gt;* Staff and Doctors can&#39;t register their accounts, administrator registers them instead&lt;br&gt;* Administrator can Delete, Modify and Register accounts&lt;br&gt;* Staff and Doctors can modify their accounts" style="shape=note;whiteSpace=wrap;html=1;backgroundOutline=1;darkOpacity=0.05;" vertex="1" parent="1">
          <mxGeometry x="530" y="330" width="200" height="310" as="geometry" />
        </mxCell>
      </root>
    </mxGraphModel>
  </diagram>
</mxfile>
